# xmcd
#
# Track frame offsets:
#	150
#	13254
#	25510
#	41665
#	52465
#	69542
#	86651
#	100599
#	113388
#	129716
#	139341
#	149947
#	163974
#	184006
#	197394
#	211479
#	224002
#	245589
#	257105
#	270130
#
# Disc length: 3746 seconds
#
# Revision: 1
# Processed by: cddbd v1.5.2PL0 Copyright (c) Steve Scherf et al.
# Submitted via: audiograbber 1.83.01
#
DISCID=350ea014
DTITLE=Charlie Rich - Country Greats
DYEAR=2008
DGENRE=Country
TTITLE0=The Most Beautiful Girl
TTITLE1=Behind Closed Doors
TTITLE2=Who Will The Next Fool Be?
TTITLE3=There Won't Be Anymore
TTITLE4=Life Has Its Little Ups And Downs
TTITLE5=My Elusive Dreams
TTITLE6=Mountain Dew
TTITLE7=I Take It On Home
TTITLE8=Big Boss Man
TTITLE9=Mohair Sam
TTITLE10=Lonely Weekends
TTITLE11=Break-Up
TTITLE12=You Don't Know Me
TTITLE13=Sittin' And Thinkin'
TTITLE14=On My Knees
TTITLE15=C.C. Rider
TTITLE16=I Feel Like Going Home
TTITLE17=Rollin' With The Flow
TTITLE18=Good Time Charlie's Got The Blues
TTITLE19=Pass On By
EXTD=
EXTT0=
EXTT1=
EXTT2=
EXTT3=
EXTT4=
EXTT5=
EXTT6=
EXTT7=
EXTT8=
EXTT9=
EXTT10=
EXTT11=
EXTT12=
EXTT13=
EXTT14=
EXTT15=
EXTT16=
EXTT17=
EXTT18=
EXTT19=
PLAYORDER=
